<svg width="95" height="35" viewBox="0 0 95 35" fill="none" xmlns="http://www.w3.org/2000/svg">
<path d="M63.4545 11.8799C64.317 11.7855 64.317 11.7876 64.7262 12.648C65.6663 14.6305 66.6079 16.6122 67.5508 18.5932C67.6369 18.7737 67.7355 18.9458 67.8677 19.1934C67.9894 18.95 68.0776 18.7737 68.1615 18.6037C69.0135 16.6451 69.8649 14.6864 70.7155 12.7278C71.1352 11.7393 71.1478 11.7393 72.132 11.8883C72.0439 12.2073 71.8844 12.5284 71.8802 12.8516C71.8571 15.011 71.8802 17.1704 71.8655 19.3298C71.8655 19.7768 71.8361 20.2028 72.4006 20.3791H70.5497C71.1289 20.1693 71.0932 19.6908 71.0911 19.2018C71.0911 17.0802 71.0911 14.9585 70.9673 12.7928L67.6453 20.5176L63.9812 12.6543C63.9581 12.9523 63.9371 13.0971 63.9371 13.2419C63.9371 15.2712 63.9371 17.3005 63.9371 19.3277C63.9371 19.7642 63.8805 20.2154 64.4723 20.377H63.1816C63.87 20.1818 63.7084 19.6215 63.7105 19.1431C63.7105 17.0445 63.7231 14.9354 63.7105 12.8327C63.6937 12.5263 63.5468 12.222 63.4545 11.8799Z" fill="black"/>
<path d="M68.3295 25.466C67.9538 26.6538 67.6327 27.68 67.297 28.6999C67.2292 28.8369 67.1431 28.964 67.0409 29.0777C66.9281 28.9732 66.8319 28.8522 66.7555 28.7188C66.296 27.5016 65.8595 26.274 65.3936 25.061C65.2777 24.8258 65.1362 24.6042 64.9718 24.4C64.7829 24.6266 64.5227 24.8197 64.4157 25.082C63.7567 26.6601 63.1355 28.2529 62.4934 29.8373C62.2835 30.3788 62.0065 30.8866 61.4315 31.1468C60.932 31.3672 60.6487 31.193 60.5564 30.597C60.6574 30.5729 60.761 30.5609 60.8649 30.5613C61.1184 30.5926 61.3757 30.5554 61.6099 30.4535C61.8441 30.3517 62.0468 30.1889 62.1968 29.9821C62.3468 29.7754 62.4386 29.5322 62.4627 29.2779C62.4868 29.0236 62.4423 28.7675 62.3339 28.5362C61.826 27.3589 61.3287 26.1754 60.7956 25.0086C60.6307 24.726 60.4365 24.4616 60.2164 24.2195H61.5028C61.4691 24.4283 61.4726 24.6415 61.5133 24.8491C61.9331 25.913 62.3968 26.9644 62.8879 28.1228C63.3874 26.8448 63.8469 25.6738 64.3149 24.4776L63.8406 24.1964H66.0945C66.0604 24.433 66.0604 24.6733 66.0945 24.9099C66.4111 25.9097 66.7946 26.887 67.2424 27.8353C67.5341 26.9266 67.872 26.0285 68.0818 25.1072C68.1406 24.8449 67.8342 24.5007 67.6999 24.2027H68.7219C68.9024 25.5143 69.5613 26.6559 70.0356 27.8962C70.407 26.8049 70.789 25.7158 71.1373 24.6161C71.1667 24.5259 70.9653 24.3643 70.8603 24.2195H72.1887C71.4479 24.2846 71.3997 24.9057 71.2234 25.4136C70.8393 26.5195 70.47 27.6318 70.0797 28.7356C70.0053 28.8667 69.9104 28.9851 69.7985 29.0861C69.7007 28.9873 69.6167 28.8757 69.5487 28.7545C69.1689 27.7052 68.7786 26.6601 68.3295 25.466Z" fill="black"/>
<path d="M86.184 20.2029C85.4495 20.6016 85.1473 20.5198 84.6647 19.842C83.246 20.8031 81.712 20.7842 80.6879 19.7895C79.6386 18.7675 79.4288 16.9124 80.2451 15.6238C81.1265 14.2283 82.5535 13.9009 84.5262 14.6438C84.8074 13.6617 84.6479 12.2871 84.2261 11.9912L85.4034 11.1224V18.4674C85.4034 18.6773 85.4034 18.8766 85.416 19.0802C85.4558 19.5838 85.4852 20.098 86.184 20.2029ZM84.6206 17.0362C84.6206 16.4759 84.6395 15.9176 84.608 15.3573C84.6002 15.264 84.5725 15.1735 84.5269 15.0917C84.4813 15.0099 84.4188 14.9388 84.3436 14.8831C84.0397 14.6989 83.6987 14.5845 83.3452 14.5482C82.9917 14.5119 82.6346 14.5546 82.2996 14.6732C81.1601 15.0761 80.6333 15.9533 80.562 17.0991C80.4906 18.2911 80.7718 19.3824 81.8883 20.0371C83.1663 20.7884 84.6164 19.9133 84.6164 18.4254L84.6206 17.0362Z" fill="black"/>
<path d="M31.6319 20.5889C30.4126 20.5029 29.3822 20.1251 28.6603 19.1199C28.3266 18.654 28.4127 18.2217 28.8492 17.9825C29.2395 17.7726 29.4242 17.8629 29.4452 18.3099C29.4871 19.1997 29.7788 19.9279 30.7148 20.1986C31.1337 20.3291 31.5761 20.3666 32.011 20.3086C32.4459 20.2506 32.863 20.0985 33.2331 19.8628C34.3033 19.1871 34.3138 17.9321 33.2331 17.2753C32.6497 16.9185 31.997 16.6772 31.3863 16.3645C30.7757 16.0518 30.0957 15.7622 29.5333 15.3488C28.3078 14.4317 28.4568 12.8851 29.8229 12.1632C31.0946 11.4854 32.9246 11.7204 33.9298 12.7214C34.1079 12.9006 34.2088 13.1424 34.211 13.395C34.1942 13.5692 33.9172 13.7161 33.7556 13.8756C33.6465 13.7392 33.4765 13.6175 33.4366 13.4559C33.2037 12.5619 32.721 12.0918 31.8921 11.9974C30.8428 11.882 29.8082 12.308 29.4473 13.0047C29.2928 13.2773 29.2502 13.5993 29.3285 13.9027C29.4068 14.2061 29.5999 14.4673 29.867 14.6311C30.3882 14.9494 30.935 15.2239 31.5018 15.4516C32.1964 15.7643 32.9246 16.0078 33.6003 16.3603C34.3873 16.78 34.9077 17.4243 34.8427 18.3749C34.7776 19.3256 34.1229 19.888 33.2981 20.1839C32.7511 20.3514 32.1947 20.4866 31.6319 20.5889Z" fill="black"/>
<path d="M55.7109 16.3498C55.8998 15.1453 55.3604 14.4422 54.2419 14.3772C53.562 14.3394 53.1171 14.6584 52.9051 15.3152C52.859 15.4537 52.7603 15.6762 52.6764 15.6804C52.5977 15.6812 52.5201 15.6625 52.4505 15.6258C52.3809 15.5892 52.3215 15.5358 52.2777 15.4705C52.2496 15.3796 52.2418 15.2836 52.2548 15.1893C52.2679 15.0951 52.3015 15.0048 52.3532 14.9249C52.5802 14.6899 52.8521 14.5029 53.1527 14.3749C53.4534 14.2469 53.7767 14.1806 54.1034 14.1799C55.6521 14.1149 56.5524 14.9858 56.5608 16.5345C56.5608 17.4264 56.5608 18.3204 56.5755 19.2123C56.5755 19.6865 56.6762 20.1167 57.3016 20.1818C56.6259 20.6708 56.1726 20.4966 55.7361 19.6194C55.4451 19.9207 55.092 20.1553 54.7014 20.3067C54.3108 20.4582 53.892 20.523 53.4738 20.4966C52.6659 20.4546 52.0048 20.0076 51.7698 19.3571C51.5285 18.6687 51.7069 17.7831 52.3868 17.3676C53.0667 16.9521 53.8558 16.7381 54.6301 16.4778C54.9849 16.3974 55.3472 16.3545 55.7109 16.3498ZM55.7718 16.6604C54.6113 16.5681 53.4277 16.9941 52.8002 17.6929C52.0342 18.5428 52.3175 19.7138 53.3815 19.9782C53.7688 20.0872 54.1788 20.086 54.5654 19.9748C54.9521 19.8636 55.3001 19.6467 55.5703 19.3487C55.6759 19.2468 55.7439 19.1122 55.7634 18.9667C55.7802 18.2092 55.7718 17.4495 55.7718 16.6604Z" fill="black"/>
<path d="M90.4379 15.8295C90.2154 15.6322 89.9783 15.5147 89.9174 15.3363C89.8712 15.202 90.0055 14.946 90.1273 14.8201C90.9394 14.0268 92.591 13.9555 93.485 14.6564C93.7224 14.8389 93.913 15.0753 94.0411 15.3461C94.1692 15.6168 94.231 15.9141 94.2216 16.2135C94.2216 17.1243 94.2048 18.0372 94.2383 18.9416C94.2572 19.4663 94.2111 20.0749 95.0001 20.1777C94.2887 20.6478 93.8543 20.4904 93.4136 19.6153C93.1336 19.8997 92.7982 20.1237 92.4283 20.2735C92.0583 20.4233 91.6616 20.4957 91.2626 20.4862C90.3644 20.4652 89.6404 19.993 89.4347 19.2837C89.3162 18.8955 89.3316 18.4788 89.4785 18.1004C89.6254 17.7221 89.8953 17.4041 90.2448 17.1977C90.8743 16.8494 91.6172 16.6668 92.3224 16.4611C92.6679 16.3912 93.0191 16.3532 93.3716 16.3478C93.5815 15.3573 93.2268 14.669 92.4042 14.4591C91.3843 14.1884 90.8827 14.5032 90.4379 15.8295ZM93.4514 16.6311C92.337 16.6101 91.4116 16.8704 90.6372 17.5545C90.3896 17.7535 90.2113 18.0256 90.1276 18.332C90.044 18.6384 90.0592 18.9634 90.1713 19.2606C90.4001 19.7874 90.9457 20.077 91.7012 20.0392C92.421 20.0014 93.0338 19.7475 93.4346 19.1095C93.4498 19.0753 93.4556 19.0376 93.4514 19.0004V16.6311Z" fill="black"/>
<path d="M35.7745 17.3404C35.7745 15.523 37.1302 14.1317 38.872 14.1506C40.6138 14.1695 41.9422 15.5755 41.9275 17.3887C41.9128 19.2018 40.5509 20.5953 38.8217 20.5827C37.0924 20.5701 35.7703 19.1703 35.7745 17.3404ZM41.3798 17.7895C41.2539 16.4968 40.6852 15.3719 39.3988 14.7424C37.9738 14.0477 36.4419 14.9732 36.3412 16.5555C36.294 17.1329 36.3875 17.7131 36.6138 18.2463C36.84 18.7796 37.1922 19.25 37.6402 19.6173C38.3705 20.2469 39.2267 20.4379 40.1291 20.0182C41.0314 19.5984 41.3504 18.8157 41.3798 17.7895Z" fill="black"/>
<path d="M74.0314 16.7801C73.8215 18.1148 74.3755 19.4327 75.4101 19.9405C76.7889 20.6141 77.792 20.0706 78.5286 18.8031L78.665 18.9122C78.6072 19.0892 78.5305 19.2595 78.4362 19.4201C78.1443 19.8079 77.7604 20.1169 77.3191 20.3192C76.8779 20.5216 76.3932 20.6108 75.9088 20.579C75.4244 20.5471 74.9556 20.3951 74.5447 20.1367C74.1337 19.8784 73.7936 19.5217 73.555 19.099C72.5267 17.29 73.2633 14.9816 75.0743 14.3353C75.435 14.1931 75.8217 14.1288 76.209 14.1464C76.5963 14.164 76.9755 14.2633 77.3218 14.4376C77.6681 14.612 77.9737 14.8575 78.2185 15.1581C78.4634 15.4587 78.642 15.8076 78.7426 16.182C78.8685 16.6206 78.7867 16.7948 78.2998 16.7864C77.0701 16.7675 75.8424 16.7864 74.6148 16.7864L74.0314 16.7801ZM78.0564 16.5576C77.9242 15.0761 77.0071 14.2219 75.7899 14.3961C74.7071 14.5493 73.8782 15.6007 74.0859 16.5576H78.0564Z" fill="black"/>
<path d="M41.6632 22.5594L41.2582 22.2845H42.7901C41.3505 22.7042 40.9287 24.1459 39.871 24.9958C39.9331 25.0356 39.9992 25.0687 40.0683 25.0944C41.915 25.1406 42.3326 26.1626 42.6075 27.6358C42.6999 28.1352 42.7041 28.6956 43.3336 28.918C42.7041 29.2433 42.3725 29.1405 42.1983 28.5319C42.0367 27.9632 41.9444 27.3735 41.8206 26.7922C41.6107 25.7828 41.1155 25.3631 40.0893 25.3232C39.5814 25.3001 39.2729 25.5666 39.2645 26.0703C39.2519 26.832 39.2372 27.5959 39.2645 28.3577C39.275 28.5843 39.4576 28.8047 39.5667 29.0397H38.3328C38.4209 28.7564 38.593 28.4458 38.5993 28.1331C38.6273 26.4963 38.6273 24.8594 38.5993 23.2225C38.5993 22.9035 38.4356 22.593 38.3475 22.2698H39.531C39.4127 22.5856 39.3262 22.9125 39.2729 23.2456C39.2309 23.9087 39.2603 24.5761 39.2603 25.426L41.6632 22.5594Z" fill="black"/>
<path d="M59.8074 20.3855H57.9438C58.4538 20.1756 58.4916 19.7748 58.4874 19.3047C58.4685 17.1306 58.4874 14.9586 58.4685 12.7845C58.4685 12.5075 58.3048 12.2305 58.1999 11.9031L59.2617 11.1224V11.7268C59.2617 14.2703 59.2617 16.8158 59.2617 19.3593C59.2575 19.7958 59.2617 20.1987 59.8074 20.3855Z" fill="black"/>
<path d="M48.3322 18.9395C48.2656 19.0951 48.1871 19.2453 48.0971 19.3886C47.8474 19.7381 47.5228 20.0274 47.147 20.2354C46.7713 20.4435 46.3538 20.565 45.9251 20.5911C45.4964 20.6173 45.0672 20.5474 44.6689 20.3865C44.2707 20.2257 43.9133 19.978 43.623 19.6614C42.7122 18.6751 42.4961 17.5041 42.9158 16.2408C43.3082 15.0635 44.133 14.3521 45.3774 14.1779C45.8215 14.1137 46.2742 14.1463 46.7045 14.2734C47.1349 14.4006 47.5326 14.6192 47.8705 14.9145C48.3406 15.3111 48.2902 15.6679 47.6984 16.0036C47.6298 15.8812 47.5695 15.7543 47.5179 15.6238C47.2535 14.8159 46.6785 14.4297 45.8517 14.3647C45.5055 14.3271 45.1561 14.3955 44.8496 14.5608C44.5431 14.726 44.294 14.9803 44.1351 15.2901C43.4446 16.5304 43.3565 17.821 43.9861 19.0906C44.6996 20.5596 46.6953 20.717 47.711 19.4411C47.8684 19.2438 48.0132 19.0403 48.1643 18.8388L48.3322 18.9395Z" fill="black"/>
<path d="M77.5821 29.0125C76.9798 29.2412 76.6168 29.0398 76.5559 28.3032C76.5244 27.9317 76.537 27.5582 76.5349 27.1867C76.5349 26.702 76.5538 26.2172 76.5349 25.7345C76.4741 24.7398 76.0145 24.2425 75.2191 24.2656C74.8009 24.2932 74.4082 24.4763 74.1181 24.7788C73.828 25.0813 73.6616 25.4813 73.6515 25.9003C73.6515 26.6831 73.6284 27.4659 73.6641 28.2465C73.6767 28.5067 73.8383 28.7607 73.9411 29.0377H72.5854C73.1122 28.8761 73.0052 28.4438 73.0052 28.066C73.0052 27.1364 73.0219 26.2046 73.0052 25.275C72.9652 24.9796 72.8949 24.6892 72.7953 24.4083L73.6179 24.0935L73.7061 24.6055C73.7907 24.5565 73.8791 24.5144 73.9705 24.4796C74.4993 24.3369 75.0198 24.0977 75.5612 24.0851C76.5328 24.0641 77.1498 24.7314 77.1813 25.701C77.2044 26.4816 77.1666 27.2665 77.2254 28.0451C77.2296 28.3619 77.4394 28.6641 77.5821 29.0125Z" fill="black"/>
<path d="M56.9219 29.0125C56.3805 29.2223 56.2441 29.1678 55.8223 28.469C55.5724 28.7202 55.2675 28.9098 54.9317 29.0227C54.5958 29.1357 54.2383 29.1688 53.8874 29.1195C53.3103 29.0398 52.8381 28.7774 52.6744 28.2003C52.5802 27.9146 52.5775 27.6065 52.6666 27.3191C52.7558 27.0317 52.9324 26.7793 53.1718 26.597C53.7846 26.085 54.5337 25.9486 55.2976 25.8667C55.4613 25.85 55.625 25.8395 55.7845 25.8269C55.944 25.0798 55.7152 24.5887 55.1213 24.3579C54.3512 24.0746 53.9671 24.2928 53.4131 25.4072C53.2641 25.254 53.0543 25.1385 53.0312 24.9874C53.0385 24.899 53.065 24.8131 53.1088 24.7359C53.1527 24.6587 53.2128 24.592 53.2851 24.5405C53.6063 24.2838 53.9938 24.1236 54.4025 24.0787C54.8112 24.0337 55.2242 24.1058 55.5935 24.2865C56.3259 24.6118 56.5043 25.2498 56.4959 25.9885C56.4728 26.6749 56.4854 27.362 56.5337 28.0471C56.5777 28.3661 56.7876 28.6662 56.9219 29.0125ZM55.86 26.0745C54.9031 26.0178 54.1224 26.2844 53.5013 26.9349C53.3316 27.0978 53.2203 27.3122 53.1846 27.5447C53.149 27.7772 53.1909 28.015 53.304 28.2213C53.5138 28.6515 54.0972 28.8698 54.7226 28.7313C55.2116 28.6201 55.7572 28.4627 55.8411 27.8919C55.9251 27.321 55.86 26.7125 55.86 26.0787V26.0745Z" fill="black"/>
<path d="M85.2462 26.1837H81.5023C81.2925 27.149 81.7122 28.2046 82.4949 28.6306C83.6009 29.235 84.4361 28.8111 85.0741 27.7702L85.1853 27.9066C85.0995 28.0859 84.9969 28.2566 84.8789 28.4165C84.5402 28.8049 84.0824 29.07 83.5771 29.1707C83.0718 29.2713 82.5473 29.2016 82.0857 28.9727C81.1456 28.5236 80.5748 27.3757 80.7364 26.2592C80.9693 24.6496 82.39 23.699 83.8359 24.1858C84.2555 24.3214 84.6198 24.5895 84.874 24.9497C85.1283 25.3099 85.2589 25.7429 85.2462 26.1837ZM81.5023 25.9612H84.6334C84.5872 24.9119 83.9849 24.2824 83.0742 24.2824C82.1634 24.2824 81.5317 24.9434 81.5023 25.9612Z" fill="black"/>
<path d="M51.8536 27.8332C51.5934 28.8385 50.4266 29.4072 49.3353 29.1469C48.0132 28.8301 47.2787 27.5877 47.5138 26.0684C47.6016 25.4817 47.9076 24.9499 48.3706 24.5791C48.8336 24.2083 49.4194 24.0259 50.0111 24.0684C50.5479 24.0955 51.0535 24.3289 51.4223 24.72C51.7911 25.111 51.9945 25.6295 51.99 26.167H48.2609C48.0657 27.1995 48.4581 28.2089 49.2451 28.6391C50.3489 29.2351 51.1842 28.8112 51.8536 27.8332ZM48.2399 25.9739H51.3877C51.3143 24.91 50.7162 24.2951 49.8054 24.2951C48.8946 24.2951 48.3091 24.9246 48.2399 25.9739Z" fill="black"/>
<path d="M51.0646 20.3917H49.2451C49.9439 20.1399 49.7509 19.5523 49.7551 19.0528C49.7551 17.9406 49.7761 16.8263 49.7551 15.714C49.7551 15.437 49.5872 15.1621 49.4823 14.8389L50.5126 14.0771C50.5273 14.2303 50.5483 14.3793 50.5483 14.5283C50.5483 16.1421 50.5483 17.758 50.5483 19.3718C50.5483 19.8062 50.5483 20.2112 51.1779 20.2658L51.0646 20.3917Z" fill="black"/>
<path d="M86.8871 20.3497C87.3719 20.1965 87.4348 19.8545 87.4264 19.4201C87.4075 18.1735 87.4264 16.9249 87.4075 15.6783C87.4075 15.4181 87.2354 15.16 87.1263 14.8536L88.1987 14.0562V16.7108C88.1987 17.6237 88.2155 18.5366 88.1987 19.439C88.1987 19.8587 88.2952 20.1735 88.7527 20.3413L86.8871 20.3497Z" fill="black"/>
<path d="M45.3672 29.0523H44.1584C44.2529 28.7501 44.4124 28.4584 44.4229 28.1625C44.4564 27.2517 44.448 26.341 44.4229 25.4344C44.3828 25.1921 44.3123 24.9559 44.213 24.7314L45.0524 24.1018L45.1112 24.6139C45.6002 24.4229 46.0849 24.2172 46.5802 24.0514C46.761 24.006 46.9511 24.0132 47.1279 24.0724C47.2797 24.1295 47.4111 24.2303 47.5057 24.362C47.5434 24.4124 47.4616 24.639 47.4238 24.6432C47.2745 24.6589 47.1236 24.6365 46.9852 24.5782C46.001 24.1291 45.0965 24.6789 45.0965 25.7387C45.0965 26.5571 45.0713 27.3756 45.107 28.1919C45.1028 28.4773 45.2644 28.7522 45.3672 29.0523Z" fill="black"/>
<path d="M56.9973 24.295C57.799 24.295 58.4663 24.0852 58.8986 23.3108L58.9448 24.1376L59.503 24.1922V24.2656L58.9259 24.3811C58.9259 25.6402 58.907 26.8993 58.9364 28.1585C58.9364 28.6327 59.2617 28.8909 59.7758 28.8699C59.2785 29.3064 58.6153 29.1637 58.3803 28.5719C58.2888 28.3097 58.2455 28.0331 58.2523 27.7555C58.2376 26.8469 58.2145 25.934 58.2523 25.0274C58.2816 24.444 58.0571 24.253 57.5115 24.3139C57.3398 24.3209 57.168 24.3145 56.9973 24.295Z" fill="black"/>
<path d="M79.817 29.0524H78.369C78.9167 28.809 78.9125 28.4082 78.9042 27.9842C78.8853 27.1448 78.9167 26.3054 78.8874 25.4786C78.8483 25.1844 78.7779 24.8953 78.6775 24.6161L79.5001 24.0054C79.5169 24.1921 79.5421 24.3411 79.5421 24.4901C79.5421 25.7136 79.5274 26.9392 79.5568 28.1626C79.5589 28.4564 79.7205 28.746 79.817 29.0524Z" fill="black"/>
<path d="M88.4254 12.2556C88.0917 12.4843 87.8839 12.7341 87.7202 12.7089C87.6113 12.6735 87.5133 12.6104 87.4361 12.5258C87.3588 12.4412 87.3049 12.338 87.2795 12.2262C87.2795 12.073 87.567 11.8065 87.7475 11.7876C87.928 11.7687 88.1064 12.0227 88.4254 12.2556Z" fill="black"/>
<path d="M50.1119 12.9502C49.858 12.6312 49.5999 12.4466 49.6041 12.2703C49.6291 12.1595 49.6825 12.0572 49.759 11.9733C49.8355 11.8894 49.9326 11.8269 50.0406 11.7918C50.1979 11.7792 50.4896 12.0457 50.519 12.2115C50.5484 12.3773 50.3155 12.6082 50.1119 12.9502Z" fill="black"/>
<path d="M79.154 23.1177C78.9651 22.8701 78.7636 22.719 78.7699 22.5826C78.7762 22.4461 78.9798 22.2992 79.1057 22.1628C79.2526 22.2951 79.4771 22.4084 79.5254 22.57C79.5548 22.677 79.3386 22.8575 79.154 23.1177Z" fill="black"/>
<path d="M23.131 34.1197H0.0403662C0.0403662 33.9074 0.00733933 33.7068 0.00733933 33.5063C0.00733933 26.1932 -0.00917417 18.8636 0.00733933 11.5434C0.014117 10.0167 0.322317 8.50642 0.914253 7.09917C1.50619 5.69193 2.37021 4.41543 3.45672 3.34295C4.54323 2.27047 5.83084 1.42311 7.24566 0.849513C8.66047 0.275913 10.1746 -0.0126365 11.7013 0.000424356C17.8985 0.0381695 23.0767 5.01817 23.1593 11.232C23.256 18.7197 23.1852 26.2097 23.1876 33.6974C23.1758 33.8201 23.1498 33.9427 23.131 34.1197ZM5.47567 11.3027V29.0925L16.4666 31.3525C16.4855 31.1567 16.5043 31.034 16.5067 30.9113C16.5067 25.3911 16.5067 19.8717 16.5067 14.353C16.5067 13.952 16.3581 13.8246 15.9877 13.742C13.8905 13.2702 11.798 12.7748 9.70312 12.2888L5.47567 11.3027ZM11.5243 1.8405C11.0937 1.84899 10.6638 1.8797 10.2363 1.9325C5.15011 2.79356 1.83326 6.70726 1.82618 11.8548C1.82618 17.3357 1.82618 22.8166 1.82618 28.2975V29.043C2.16165 29.0225 2.49804 29.0225 2.83351 29.043C3.46574 29.1279 3.64031 28.9014 3.63559 28.255C3.61043 22.6923 3.61043 17.1281 3.63559 11.5622C3.61688 9.68099 4.27292 7.85531 5.48476 6.41625C6.6966 4.9772 8.384 4.02003 10.241 3.71832C10.6656 3.64283 11.0973 3.60037 11.5432 3.54139L11.5243 1.8405ZM11.8452 3.56734C16.3769 3.80325 19.8377 7.41263 19.6749 12.3124C19.5003 17.6203 19.6348 22.9282 19.6348 28.2479V28.9911H21.3593V28.4485C21.3593 22.8221 21.4112 17.1957 21.3404 11.5693C21.2909 7.61079 19.406 4.68318 15.9004 2.84075C14.6526 2.17939 13.2572 1.84577 11.8452 1.87117V3.56734ZM0.28571 33.8389H22.8762V31.8031H0.28571V33.8389ZM21.6212 28.9934H22.8762C22.8762 28.7811 22.9068 28.616 22.9068 28.4532C22.9068 22.7914 22.9186 17.1509 22.8951 11.5009C22.8865 10.6651 22.79 9.83245 22.6072 9.0168C22.1356 6.87496 21.0271 4.92592 19.4272 3.4258L18.4624 4.27978C20.8026 6.56336 21.6801 9.31876 21.64 12.5035C21.5716 17.7336 21.6212 22.966 21.6212 28.1984V28.9934ZM1.55725 29.017V28.1842C1.55725 22.7018 1.55725 17.2201 1.55725 11.7392C1.52315 9.67352 2.14056 7.64961 3.32184 5.95472C3.73703 5.36495 4.21828 4.82001 4.6382 4.30337L3.77478 3.41872C1.52894 5.6386 0.292787 8.30672 0.276273 11.4749C0.245605 17.1367 0.276273 22.7725 0.276273 28.4225V29.017H1.55725ZM5.18078 29.017V28.2196C5.18078 22.6758 5.18078 17.132 5.18078 11.5882C5.16305 10.7575 5.3143 9.93181 5.62534 9.16131C5.93637 8.39081 6.40072 7.69155 6.99019 7.10595C7.10343 6.99035 7.20487 6.87004 7.32754 6.72378L6.46884 5.81318C6.29663 5.96887 6.15272 6.08447 6.02533 6.21658C5.33267 6.9212 4.78685 7.75636 4.41955 8.67361C4.05224 9.59086 3.87077 10.5719 3.88565 11.5599C3.88565 17.1666 3.88565 22.7741 3.88565 28.3824C3.88565 28.5853 3.90688 28.7882 3.91868 29.0217L5.18078 29.017ZM19.3706 29.0028V21.3972C19.3706 18.052 19.3848 14.7069 19.3706 11.3594C19.3564 9.17721 18.4718 7.37488 16.8558 5.8462L16.0302 6.72378C17.8183 8.26661 18.2005 10.2624 18.1722 12.4658C18.1061 17.7123 18.151 22.9636 18.151 28.2102V28.9958L19.3706 29.0028ZM0.290427 31.4681H15.3437C13.0624 30.9326 10.7529 30.548 8.50236 29.9724C5.95456 29.3237 3.38317 29.2647 0.788191 29.3237C0.624517 29.335 0.461528 29.3547 0.299864 29.3827L0.290427 31.4681ZM19.1182 3.19697C15.0865 -0.638884 8.25229 -0.728529 4.10505 3.14743L4.89062 4.04387C9.40116 0.719941 13.8409 0.719941 18.309 4.04387L19.1182 3.19697ZM16.8157 31.4586H22.8502V29.352H16.8157V31.4586ZM14.7209 8.08968L12.0056 10.9748H16.3321C16.2669 10.4115 16.091 9.86655 15.8145 9.37141C15.538 8.87627 15.1663 8.44068 14.7209 8.08968ZM7.02794 10.9607H11.3309L8.63446 8.10619C7.78166 8.84057 7.21321 9.8506 7.02794 10.9607ZM11.5102 3.86458C9.74816 3.87955 8.04454 4.49821 6.68351 5.61737L7.4337 6.39587L11.5102 4.92852V3.86458ZM16.6553 5.6622C15.2021 4.52512 13.6593 3.90941 11.864 3.87402V5.1314C13.2972 5.19851 14.6779 5.69131 15.8296 6.54685L16.6553 5.6622ZM11.5338 6.82286L8.7477 7.82546L11.5338 10.7672V6.82286ZM16.7072 10.9536H17.8867C17.8368 10.1778 17.6294 9.42034 17.2774 8.72724C16.9254 8.03414 16.436 7.41991 15.8391 6.92194L14.9898 7.82546C15.3795 8.27961 15.7359 8.76133 16.0561 9.26686C16.3087 9.81413 16.5224 10.3786 16.6954 10.956L16.7072 10.9536ZM11.8853 6.82522V10.7177L14.6289 7.81131L11.8853 6.82522ZM5.51577 11.0031C5.76057 11.0262 6.007 11.0262 6.2518 11.0031C6.44288 10.963 6.74013 10.8639 6.77316 10.7366C7.04856 9.65297 7.62808 8.67072 8.44338 7.90567L7.45493 7.03753C6.88057 7.53472 6.41177 8.14206 6.07626 8.82361C5.74075 9.50517 5.54535 10.2471 5.50162 11.0055L5.51577 11.0031ZM11.8428 6.53505L14.8129 7.60843L15.6244 6.74265C14.5404 5.9111 13.216 5.45337 11.8499 5.43808L11.8428 6.53505ZM7.75925 6.78747L8.54246 7.61551L11.5078 6.54921V5.44044C10.1478 5.48446 8.83621 5.95577 7.75925 6.78747Z" fill="black"/>
<path d="M12.6874 21.1306C11.5362 21.317 10.9936 21.9893 10.878 23.1193C10.6161 22.1167 10.241 21.2627 9.01196 21.1518C10.1066 20.8829 10.7412 20.2483 10.8355 19.0735C10.9936 20.22 11.555 20.9112 12.6874 21.1306Z" fill="black"/>
</svg>
